<svg width="78" height="128" viewBox="0 0 78 128" fill="none" xmlns="http://www.w3.org/2000/svg">
<g filter="url(#filter0_d)">
<path fill-rule="evenodd" clip-rule="evenodd" d="M33.4249 0C32.7819 0.078164 32.1096 0.180758 31.4685 0.278595L31.3634 0.294622C31.1151 0.332485 31.1157 0.330766 31.1165 0.328142C31.1173 0.325746 31.1183 0.322595 30.9303 0.348139C30.6134 0.375445 30.6002 0.375281 30.5882 0.379034C30.5765 0.382718 30.5659 0.390178 30.2703 0.431111C30.1516 0.493955 30.095 0.498995 30.0295 0.504819C30.001 0.507352 29.9709 0.510035 29.9332 0.517691C29.8921 0.526059 29.8371 0.533602 29.7663 0.543314C29.6504 0.559205 29.4923 0.580901 29.2832 0.621511C29.25 0.627964 29.2303 0.632099 29.2192 0.634648C29.2109 0.633138 29.1498 0.636591 28.8971 0.665597C28.7302 0.695432 28.6994 0.697174 28.677 0.698444C28.656 0.699631 28.6423 0.700405 28.5316 0.723317C28.1941 0.793181 28.1015 0.809164 28.0802 0.811755C28.0836 0.810088 28.0798 0.81056 28.077 0.811213C28.0742 0.811866 28.0725 0.812699 28.0802 0.811755C28.0746 0.814477 28.0495 0.822901 27.9684 0.845555C27.7356 0.910586 27.6925 0.92156 27.6501 0.935097C27.6171 0.945662 27.5846 0.957788 27.4628 0.99839L27.2565 1.09801L26.7342 1.34426C26.5312 1.45486 26.3039 1.54158 26.0755 1.62872C25.7916 1.73701 25.506 1.84596 25.2634 2.0022C25.2303 2.0022 25.2001 2.00175 25.1719 2.00132C24.8637 1.99667 24.7876 1.99553 23.5426 2.63023C23.1368 2.83705 22.6717 3.04892 22.4983 3.04892C22.3251 3.04892 21.6293 3.29456 21.1746 3.54238C21.0892 3.58895 21.0079 3.6344 20.9308 3.67749C20.5977 3.86367 20.3432 4.00592 20.1745 4.00592C19.9667 4.00592 19.3135 4.28244 19.1155 4.37975C19.0453 4.49532 18.7535 4.5638 18.1162 4.70528C17.4788 4.84676 16.409 5.23583 15.739 5.56948L14.5208 6.1764L14.3704 8.19969C14.1341 11.3796 13.6226 12.6175 11.8864 14.2121C10.6467 15.3505 8.75695 16.0209 6.43639 16.1455C5.40093 16.2009 4.42991 16.3476 4.27841 16.4713C4.10764 16.6109 4.04541 17.007 4.11495 17.5148C4.17631 17.9649 4.33534 19.9046 4.46823 21.8252C4.60112 23.7457 4.75949 26.0268 4.82018 26.8941C4.88087 27.7615 5.02018 28.6419 5.12982 28.8505C5.23924 29.0593 5.32894 29.6559 5.32894 30.1763C5.32894 31.1473 5.65918 33.4903 5.99363 34.8918C6.09729 35.3254 6.29641 36.2885 6.43639 37.032C6.57637 37.7754 6.78325 38.764 6.89599 39.2285C7.42025 41.3894 7.53764 41.8497 7.88693 43.1147C8.09226 43.8581 8.30931 44.7969 8.36934 45.2006C8.42958 45.6045 8.56735 45.9907 8.67566 46.0587C8.78419 46.127 8.87279 46.4316 8.87279 46.7357C8.87279 47.0398 8.96781 47.4647 9.08387 47.6799C9.19993 47.895 9.51223 48.7299 9.77802 49.5353C10.0436 50.3407 10.4352 51.4052 10.6483 51.9008C10.8611 52.3964 11.1634 53.1568 11.3198 53.5905C11.643 54.4851 13.1092 57.8105 13.7042 58.9973C13.9217 59.431 14.1943 59.7525 14.3102 59.7117C14.5046 59.6432 16.3501 58.1892 19.9473 55.2702C20.7391 54.6277 21.6359 53.9698 21.94 53.8085C22.618 53.4488 22.1332 53.1996 21.4204 53.5411C19.6073 54.4103 13.804 56.5036 13.6481 56.345C13.2995 55.9902 13.7487 55.4506 16.2373 53.2347C17.7295 51.906 19.1001 50.653 19.2828 50.4502C19.4656 50.2474 20.1883 49.6423 20.8886 49.1055C21.589 48.5686 22.1589 48.0656 22.1549 47.9876C22.1509 47.9094 21.4408 47.0853 20.577 46.156C18.1889 43.5869 16.9184 41.5523 15.2313 37.5952C14.9124 36.8468 14.6428 35.9939 14.164 34.2159C13.686 32.4422 13.3356 27.8453 13.5735 26.4717C13.7801 25.2786 13.762 25.0979 13.4094 24.8357C13.0942 24.6014 13.0767 24.5189 13.3241 24.4329C14.1496 24.1456 14.5071 24.2051 14.5795 24.6413C14.6207 24.8891 14.7622 25.3453 14.894 25.655C15.026 25.9648 15.2103 26.421 15.3035 26.6688C15.397 26.9166 15.6827 27.5999 15.9383 28.187C16.1941 28.7743 16.4035 29.3121 16.4035 29.3822C16.4035 29.5239 18.0365 32.0029 18.5947 32.7083C19.3384 33.6489 21.4313 35.7514 22.5091 36.6413C24.1226 37.9734 27.7136 39.7392 30.2632 40.4543C32.2088 40.9997 32.8307 41.0691 35.6731 41.0565C39.4462 41.04 41.5718 40.5773 44.422 39.1515C48.083 37.3201 48.5047 36.9317 48.9957 34.9384C49.5058 32.8669 50.2591 30.8044 50.6804 30.3261C51.0144 29.9472 51.0532 29.9499 51.5081 30.3847C52.0368 30.8898 52.2849 30.7839 52.2849 30.0535C52.2849 29.7881 52.428 29.3743 52.6027 29.1337C52.9101 28.7108 52.9405 28.7205 53.5208 29.4286C53.851 29.8312 54.1946 30.1608 54.2845 30.1608C54.3742 30.1608 54.698 29.6284 55.0037 28.978C56.0524 26.7468 56.2099 26.3057 56.955 23.5148C57.3329 22.0989 57.6582 18.2497 57.4992 17.0719C56.9302 12.8523 57.5344 12.4405 59.3391 15.8177C59.7573 16.5999 60.9753 20.4104 61.3505 22.1099C61.4809 22.7004 61.601 24.1704 61.6176 25.3766C61.6342 26.583 61.6894 27.3165 61.7403 27.0068C61.791 26.697 61.974 25.9315 62.1465 25.3056C62.319 24.68 62.4748 23.2891 62.4929 22.2149C62.5284 20.0869 62.8283 19.2594 63.3377 19.8834C64.0121 20.7102 64.6894 24.8722 64.6801 28.1332C64.6684 32.2365 63.9406 35.4723 62.1977 39.1722C61.1347 41.4284 59.4981 44.1562 59.111 44.3161C59.0113 44.3576 58.9296 44.4851 58.9296 44.5998C58.9296 44.8656 58.0257 45.9229 56.5636 47.3672L55.4161 48.5008L56.1643 49.0181C56.576 49.3026 57.0093 49.5353 57.1275 49.5353C57.2456 49.5353 57.3754 49.618 57.4161 49.7192C57.4567 49.8203 58.1876 50.4495 59.0403 51.1173C62.4681 53.8018 64.7836 55.9548 64.5884 56.2759C64.3452 56.6762 63.9603 56.578 60.2404 55.1675C56.3889 53.7069 55.1782 53.4368 56.4544 54.3226C58.5916 55.8059 63.0841 59.328 63.3924 59.7617C63.4715 59.873 63.6801 59.9079 63.856 59.8394C64.1685 59.7173 64.3523 59.3789 65.3546 57.0824C65.625 56.4628 66.0244 55.5504 66.2419 55.0548C68.0802 50.8686 70.4796 43.0122 71.6772 37.2573C72.5433 33.0958 72.7105 32.0196 73.5849 24.9792C73.7158 23.926 73.8357 21.5943 73.8516 19.7976L73.8802 16.531L72.4405 16.4915C69.4346 16.4095 67.5046 15.7089 66.0089 14.1569C64.5357 12.6281 64.1333 11.5035 63.8759 8.19541C63.7437 6.49698 63.5399 6.05519 62.8894 6.05519C62.6606 6.05519 62.4734 5.9786 62.4734 5.88488C62.4734 5.68505 61.6346 5.29733 60.3139 4.88664C59.7961 4.72556 59.3726 4.52596 59.3726 4.44305C59.3726 4.36037 58.9796 4.22497 58.4995 4.14252C58.019 4.05984 57.5085 3.8483 57.3648 3.67212C57.221 3.49595 56.965 3.35177 56.796 3.35177C56.4852 3.35177 55.1304 2.78968 53.5031 1.98586C53.0158 1.74526 52.3631 1.54858 52.0523 1.54881C51.7418 1.54926 51.3746 1.43459 51.2366 1.29423C51.0984 1.15366 50.8044 1.02029 50.5832 0.997532C50.3617 0.975003 49.9054 0.875652 49.5687 0.777202C49.1694 0.660279 49.0766 0.636108 48.5458 0.636108C48.1955 0.55354 48.0881 0.565538 48.0117 0.574069C47.9785 0.577775 47.9512 0.580827 47.9123 0.575186C47.7849 0.556673 47.6825 0.511181 47.5402 0.447988C47.4283 0.398294 47.2918 0.337654 47.0991 0.270579C46.945 0.216928 46.8083 0.166908 46.688 0.120501C45.0851 1.79259 42.7337 2.8481 40.1131 2.8481C37.43 2.8481 35.0292 1.74172 33.4249 0ZM29.2192 0.634648C29.2031 0.638346 29.205 0.638706 29.2101 0.637961C29.2151 0.637217 29.2231 0.635368 29.2192 0.634648ZM55.4004 34.5872C55.1403 33.8723 55.3521 33.4146 56.1231 33.0237C57.5586 32.2962 57.928 32.6997 57.3404 34.3529C56.9497 35.4518 55.7667 35.5946 55.4004 34.5872ZM21.387 58.513C25.5929 57.0006 30.4262 55.8379 34.6764 55.3166C37.5998 54.9577 44.8696 55.3192 45.9427 55.7038C47.3116 55.7038 55.0892 57.8486 61.2081 60.2898L63.3756 61.1546L62.4816 62.5618C61.9899 63.3356 61.5875 64.0207 61.5875 64.084C61.5875 64.287 59.3026 67.6679 59.1125 67.7458C59.012 67.7873 58.9296 67.927 58.9296 68.0565C58.9296 68.186 58.6058 68.6704 58.2097 69.1327C57.8137 69.595 57.0414 70.5067 56.4932 71.1584C52.9299 75.3954 48.0792 79.1881 43.0432 81.6748C41.6757 82.35 40.5105 82.979 40.4535 83.0724C40.3966 83.1662 40.4471 83.6929 40.5654 84.2428C41.0367 86.4321 41.1907 87.3617 41.44 89.5235C41.6901 91.6912 42.0414 93.1466 42.2607 92.9235C42.318 92.8649 42.5993 91.5691 42.8855 90.0439C44.1537 83.282 44.2353 83.0173 45.0769 82.9163C45.4162 82.8756 45.9192 82.9001 46.1952 82.9704C46.6965 83.0984 46.6965 83.0988 46.3744 84.7339C46.1972 85.6335 45.9669 86.7243 45.8621 87.158C45.6034 88.2304 44.8047 92.0692 44.6667 92.9028C44.5183 93.801 44.1487 95.5927 43.8536 96.8453C43.7223 97.4029 43.5604 98.2139 43.4937 98.6476C43.3252 99.747 43.0583 99.9993 42.0644 99.9993C41.3732 99.9993 41.1627 99.8981 41.0099 99.4924C40.7111 98.6994 39.7919 93.8172 39.4723 91.3258C39.3713 90.54 39.2271 90.1994 38.9955 90.1994C38.7631 90.1994 38.6211 90.538 38.5232 91.3258C38.3928 92.3754 38.15 93.7012 37.636 96.1694C37.5197 96.727 37.3438 97.6394 37.2448 98.197C36.9471 99.8758 36.845 99.9993 35.7533 99.9993C35.3484 99.9993 35.098 100.014 34.9208 99.9076C34.6053 99.7176 34.5221 99.1418 34.2122 97.4085C33.6788 94.4259 33.4823 93.3626 33.2454 92.1706C33.1284 91.5819 32.9291 90.5429 32.8024 89.8614C32.6759 89.1799 32.4721 88.1155 32.3499 87.4959C32.2274 86.8764 32.0699 85.964 31.9999 85.4684C31.9297 84.9727 31.7647 84.2791 31.6331 83.927C31.3425 83.1486 31.6367 82.8846 32.7937 82.8846C33.2259 82.8846 33.5087 82.8779 33.7138 83.0009C34.1164 83.2424 34.2192 83.9838 34.5637 86.2569C34.6857 87.0623 34.8886 88.3295 35.0142 89.0729C35.14 89.8164 35.3021 90.957 35.3745 91.6074C35.5433 93.1206 36.0129 93.184 36.2098 91.72C36.2891 91.1314 36.4485 90.1937 36.5644 89.6362C37.7013 84.1613 37.886 82.6523 37.4196 82.6523C36.7659 82.6523 29.8036 78.808 29.2499 78.1414C29.189 78.0682 28.3418 77.3939 27.3672 76.643C25.4177 75.141 21.5068 71.1206 19.948 69.0158C19.4 68.2759 18.9016 67.6201 18.8405 67.5582C18.7792 67.4962 18.6294 67.2811 18.5076 67.0801C18.3858 66.8792 17.8704 66.1109 17.3623 65.3729C16.5045 64.1266 15.8745 63.0795 15.1565 61.7061C14.9959 61.3993 14.9463 61.0652 15.0457 60.9641C15.2309 60.7757 17.054 60.071 21.387 58.513ZM4 82.9035L4.94133 82.8068C6.47825 82.6491 9.15186 82.8938 9.92752 83.263C11.6188 84.0689 12.2685 85.8723 11.7759 88.3955C11.5832 89.3838 11.3404 89.9103 10.8762 90.3476L10.2405 90.9464L10.7805 91.4623C11.685 92.3267 11.9736 93.1828 11.9736 95.0016C11.9736 96.3967 11.8773 96.8604 11.423 97.6487C10.6128 99.0547 9.5532 99.4897 6.49177 99.6726L4 99.8213V91.3623V82.9035ZM13.7146 92.3396C13.7075 88.3126 13.7117 84.5364 13.7236 83.9477L13.7456 82.8776H16.5189C19.1302 82.8776 19.3429 82.9116 20.1568 83.4595C21.5879 84.4228 22.1208 86.7205 21.453 89.0468C21.2027 89.9189 20.5544 90.7626 20.1349 90.7626C19.779 90.7626 19.9493 91.2422 20.6 92.0713C21.1369 92.755 21.2754 93.183 21.3788 94.4798C21.4479 95.3471 21.4395 96.8931 21.36 97.9154L21.2153 99.774H20.2671C19.5984 99.774 19.2008 99.7853 18.9644 99.5956C18.6048 99.3071 18.6184 98.5536 18.6184 96.588C18.6184 93.3739 18.3698 92.5649 17.3824 92.5649C16.4954 92.5649 16.325 93.2655 16.4759 96.2936C16.6407 99.5976 16.5718 99.7463 14.8993 99.6963L13.7272 99.6614L13.7146 92.3396ZM23.729 99.6816C23.4254 99.3092 23.4783 83.6354 23.7848 83.1529C23.9219 82.9373 24.7264 82.8807 26.9964 82.9276L30.0251 82.9902L30.094 83.9644C30.1961 85.4075 29.8977 85.6436 28.1019 85.5405C26.9796 85.476 26.5732 85.5314 26.4864 85.7612C26.3078 86.2343 26.3559 89.4893 26.5457 89.793C26.6398 89.9437 27.3473 90.0928 28.1482 90.1309L29.5821 90.1994V91.4384V92.6775L28.1088 92.5996C26.827 92.5315 26.6208 92.5755 26.5233 92.9375C26.3326 93.6449 26.4097 96.8435 26.6208 96.976C26.7304 97.0451 27.4419 97.1235 28.2014 97.1508C28.9611 97.1778 29.6942 97.2702 29.8306 97.3558C30.1994 97.5876 30.3762 98.7931 30.1359 99.4361C29.9257 99.9982 29.9192 99.9993 26.9568 99.9993C24.6724 99.9993 23.9286 99.9261 23.729 99.6816ZM47.8551 83.1243L49.2394 83.0574C52.3573 82.9062 53.9383 83.3847 54.6003 84.6799C55.2734 85.9971 55.3857 86.9773 55.3857 91.5409C55.3857 99.1488 54.8508 99.9993 50.0655 99.9993H47.8551V91.5619V83.1243ZM59.4193 83.2308C59.6982 83.17 60.1256 83.0745 60.3693 83.0184C60.9582 82.8825 62.2316 83.0754 62.9067 83.4025C63.2059 83.5474 63.7257 84.0716 64.0622 84.5672L64.6737 85.4684L64.681 91.5105L64.6883 97.5527L64.0254 98.5327C63.2083 99.7404 62.2699 100.104 60.4138 99.9333C58.959 99.799 58.1801 99.3493 57.5696 98.2916C57.2392 97.7189 57.188 96.8872 57.1738 91.8662C57.1632 88.0396 57.244 85.8412 57.4146 85.333C57.7198 84.4235 58.7099 83.3851 59.4193 83.2308ZM66.798 85.264C67.1932 84.3025 67.9772 83.5478 68.9671 83.1763C70.7317 82.5142 72.6781 83.154 73.5169 84.672C73.9258 85.412 73.9993 85.8473 73.9455 87.2064L73.8802 88.8476L72.825 88.867C71.5138 88.8911 71.2416 88.5904 71.3871 87.2779C71.5105 86.1645 71.1266 85.581 70.2712 85.581C69.424 85.581 69.2816 86.3249 69.1901 91.2237C69.0964 96.258 69.2061 96.9715 70.11 97.2021C71.0473 97.4414 71.333 96.9832 71.333 95.2408C71.333 93.8416 71.2901 93.6913 70.8901 93.6913C70.4974 93.6913 70.4471 93.541 70.4471 92.3693V91.0471L71.333 90.9264C71.8203 90.8599 72.6197 90.8601 73.1096 90.927L74 91.0485L73.9402 95.4674L73.8802 99.8866L73.3001 99.9551C72.8731 100.005 72.6892 99.9044 72.604 99.5728C72.4888 99.1243 72.4839 99.1243 71.6422 99.5607C70.6794 100.06 70.0493 100.102 68.7859 99.7503C66.6321 99.1513 66.4603 98.5539 66.4603 91.6637C66.4603 87.1747 66.5263 85.9261 66.798 85.264ZM9.31577 87.63C9.31577 86.2623 8.97799 85.4373 8.34741 85.2652C7.70841 85.0908 6.98502 85.098 6.80562 85.2807C6.60162 85.4882 6.61868 89.3618 6.824 89.4791C7.5248 89.879 8.18882 89.8189 8.73303 89.3059C9.21277 88.8537 9.31577 88.5573 9.31577 87.63ZM18.5944 89.0819C19.2115 87.7721 19.0726 86.0473 18.3083 85.5281C18.0026 85.3206 16.749 85.3046 16.5512 85.506C16.4699 85.5884 16.4035 86.5497 16.4035 87.6419C16.4035 89.5548 16.4232 89.6325 16.9397 89.7646C17.7953 89.9829 18.2602 89.7911 18.5944 89.0819ZM52.7279 91.1913C52.7279 86.7388 52.5664 85.8257 51.7212 85.4956C50.9754 85.2046 50.5134 85.3431 50.4981 85.8626C50.4292 88.1964 50.5355 96.9253 50.6346 97.0884C50.8102 97.3774 51.4445 97.3348 51.8446 97.007C52.5963 96.3911 52.7279 95.5249 52.7279 91.1913ZM62.1166 91.2943C62.2205 86.7128 62.1977 86.2767 61.8358 85.9437C61.3715 85.5163 60.4579 85.4684 60.0813 85.8514C59.7039 86.2352 59.7039 96.6416 60.0813 97.0255C60.2275 97.1742 60.674 97.2959 61.0738 97.2959C61.6497 97.2959 61.8216 97.1907 61.902 96.789C61.9578 96.5101 62.0544 94.0376 62.1166 91.2943ZM8.92041 96.3535C9.47568 95.6362 9.27656 93.3173 8.60988 92.7338C8.17376 92.3522 7.50553 92.2544 6.93475 92.4887C6.53872 92.6514 6.54603 96.7534 6.9425 96.9081C7.53033 97.1377 8.53058 96.857 8.92041 96.3535Z" fill="white"/>
</g>
<g filter="url(#filter1_d)">
<path d="M4 103H8.2743C9.56726 103 10.4899 103.433 11.0422 104.3C11.5946 105.153 11.8707 106.408 11.8707 108.063C11.8707 109.719 11.6259 110.967 11.1364 111.807C10.6468 112.648 9.7681 113.068 8.50025 113.068H7.18219V119.664H4V103ZM7.37048 110.062C7.75962 110.062 8.04207 109.99 8.21781 109.848C8.4061 109.693 8.52536 109.48 8.57557 109.208C8.63833 108.923 8.66972 108.522 8.66972 108.005C8.66972 107.307 8.5944 106.802 8.44376 106.492C8.29313 106.182 7.99186 106.026 7.53995 106.026H7.18219V110.062H7.37048Z" fill="white"/>
<path d="M16.6286 119.82C15.2979 119.82 14.3063 119.432 13.6535 118.656C13.0133 117.88 12.6932 116.729 12.6932 115.202V103H15.8377V115.067C15.8377 115.597 15.8879 116.011 15.9884 116.308C16.0888 116.606 16.3022 116.754 16.6286 116.754C16.9549 116.754 17.1683 116.612 17.2688 116.328C17.3692 116.03 17.4194 115.61 17.4194 115.067V103H20.5639V115.202C20.5639 116.729 20.2376 117.88 19.5848 118.656C18.9446 119.432 17.9592 119.82 16.6286 119.82Z" fill="white"/>
<path d="M21.7998 119.664V103H25.1326L26.6201 110.973V103H29.7458V119.664H26.5825L24.9631 111.322V119.664H21.7998Z" fill="white"/>
<path d="M31.1777 119.664V103H34.3788V109.674L35.8851 103H39.1426L37.335 110.624L39.5192 119.664H36.1676L34.3976 111.594V119.664H31.1777Z" fill="white"/>
<path d="M45.734 119.664L44.0017 103H47.165L48.0688 113.515L48.9727 103H51.9854L52.8515 113.515L53.7177 103H56.9187L55.1487 119.664H51.2699L50.4602 111.633L49.6882 119.664H45.734Z" fill="white"/>
<path d="M57.7267 119.664V103H60.8524V119.664H57.7267Z" fill="white"/>
<path d="M62.1434 119.664V103H65.3445V109.674L66.8508 103H70.1083L68.3007 110.624L70.4849 119.664H67.1333L65.3633 111.594V119.664H62.1434Z" fill="white"/>
<path d="M70.8743 119.664V103H74V119.664H70.8743Z" fill="white"/>
</g>
<defs>
<filter id="filter0_d" x="0" y="0" width="78" height="108" filterUnits="userSpaceOnUse" color-interpolation-filters="sRGB">
<feFlood flood-opacity="0" result="BackgroundImageFix"/>
<feColorMatrix in="SourceAlpha" type="matrix" values="0 0 0 0 0 0 0 0 0 0 0 0 0 0 0 0 0 0 127 0"/>
<feOffset dy="4"/>
<feGaussianBlur stdDeviation="2"/>
<feColorMatrix type="matrix" values="0 0 0 0 0 0 0 0 0 0 0 0 0 0 0 0 0 0 0.25 0"/>
<feBlend mode="normal" in2="BackgroundImageFix" result="effect1_dropShadow"/>
<feBlend mode="normal" in="SourceGraphic" in2="effect1_dropShadow" result="shape"/>
</filter>
<filter id="filter1_d" x="0" y="103" width="78" height="24.8196" filterUnits="userSpaceOnUse" color-interpolation-filters="sRGB">
<feFlood flood-opacity="0" result="BackgroundImageFix"/>
<feColorMatrix in="SourceAlpha" type="matrix" values="0 0 0 0 0 0 0 0 0 0 0 0 0 0 0 0 0 0 127 0"/>
<feOffset dy="4"/>
<feGaussianBlur stdDeviation="2"/>
<feColorMatrix type="matrix" values="0 0 0 0 0 0 0 0 0 0 0 0 0 0 0 0 0 0 0.25 0"/>
<feBlend mode="normal" in2="BackgroundImageFix" result="effect1_dropShadow"/>
<feBlend mode="normal" in="SourceGraphic" in2="effect1_dropShadow" result="shape"/>
</filter>
</defs>
</svg>
